<mxfile host="app.diagrams.net" modified="2020-12-24T06:11:07.781Z" agent="5.0 (Macintosh; Intel Mac OS X 10_14_3) AppleWebKit/537.36 (KHTML, like Gecko) Chrome/87.0.4280.88 Safari/537.36" etag="FjwLAAh1pzELfPIQ2EQZ" version="14.1.1" type="github">
  <diagram id="t8NCIz4bVcPVeXpqCKI4" name="Page-1">
    <mxGraphModel dx="1186" dy="764" grid="1" gridSize="10" guides="1" tooltips="1" connect="1" arrows="1" fold="1" page="1" pageScale="1" pageWidth="827" pageHeight="1169" math="0" shadow="0">
      <root>
        <mxCell id="0" />
        <mxCell id="1" parent="0" />
        <mxCell id="8nQMXK6_oTZO91173ZuV-10" value="" style="edgeStyle=orthogonalEdgeStyle;rounded=0;orthogonalLoop=1;jettySize=auto;html=1;" edge="1" parent="1" source="8nQMXK6_oTZO91173ZuV-1" target="8nQMXK6_oTZO91173ZuV-7">
          <mxGeometry relative="1" as="geometry" />
        </mxCell>
        <mxCell id="8nQMXK6_oTZO91173ZuV-1" value="学习项目" style="ellipse;whiteSpace=wrap;html=1;" vertex="1" parent="1">
          <mxGeometry x="280" y="400" width="120" height="80" as="geometry" />
        </mxCell>
        <mxCell id="8nQMXK6_oTZO91173ZuV-2" value="阶段&amp;nbsp;&amp;nbsp;" style="ellipse;whiteSpace=wrap;html=1;" vertex="1" parent="1">
          <mxGeometry x="110" y="290" width="120" height="80" as="geometry" />
        </mxCell>
        <mxCell id="8nQMXK6_oTZO91173ZuV-3" value="任务" style="ellipse;whiteSpace=wrap;html=1;" vertex="1" parent="1">
          <mxGeometry x="280" y="280" width="120" height="80" as="geometry" />
        </mxCell>
        <mxCell id="8nQMXK6_oTZO91173ZuV-4" value="分类" style="ellipse;whiteSpace=wrap;html=1;" vertex="1" parent="1">
          <mxGeometry x="450" y="400" width="120" height="80" as="geometry" />
        </mxCell>
        <mxCell id="8nQMXK6_oTZO91173ZuV-5" value="分配" style="ellipse;whiteSpace=wrap;html=1;" vertex="1" parent="1">
          <mxGeometry x="450" y="520" width="120" height="80" as="geometry" />
        </mxCell>
        <mxCell id="8nQMXK6_oTZO91173ZuV-6" value="获取证书规则" style="ellipse;whiteSpace=wrap;html=1;" vertex="1" parent="1">
          <mxGeometry x="450" y="280" width="120" height="80" as="geometry" />
        </mxCell>
        <mxCell id="8nQMXK6_oTZO91173ZuV-7" value="证书" style="ellipse;whiteSpace=wrap;html=1;" vertex="1" parent="1">
          <mxGeometry x="110" y="400" width="120" height="80" as="geometry" />
        </mxCell>
        <mxCell id="8nQMXK6_oTZO91173ZuV-8" value="学员项目维度统计" style="ellipse;whiteSpace=wrap;html=1;" vertex="1" parent="1">
          <mxGeometry x="110" y="520" width="120" height="80" as="geometry" />
        </mxCell>
        <mxCell id="8nQMXK6_oTZO91173ZuV-9" value="学员任务维度统计" style="ellipse;whiteSpace=wrap;html=1;" vertex="1" parent="1">
          <mxGeometry x="280" y="520" width="120" height="80" as="geometry" />
        </mxCell>
        <mxCell id="8nQMXK6_oTZO91173ZuV-13" value="" style="endArrow=classic;html=1;entryX=0;entryY=1;entryDx=0;entryDy=0;" edge="1" parent="1" target="8nQMXK6_oTZO91173ZuV-6">
          <mxGeometry width="50" height="50" relative="1" as="geometry">
            <mxPoint x="389" y="420" as="sourcePoint" />
            <mxPoint x="439" y="370" as="targetPoint" />
          </mxGeometry>
        </mxCell>
        <mxCell id="8nQMXK6_oTZO91173ZuV-14" value="" style="endArrow=classic;html=1;entryX=0.5;entryY=1;entryDx=0;entryDy=0;" edge="1" parent="1" target="8nQMXK6_oTZO91173ZuV-3">
          <mxGeometry width="50" height="50" relative="1" as="geometry">
            <mxPoint x="335" y="400" as="sourcePoint" />
            <mxPoint x="413.57359312880726" y="328.2842712474617" as="targetPoint" />
          </mxGeometry>
        </mxCell>
        <mxCell id="8nQMXK6_oTZO91173ZuV-16" value="" style="endArrow=classic;html=1;exitX=0;exitY=0;exitDx=0;exitDy=0;" edge="1" parent="1" source="8nQMXK6_oTZO91173ZuV-1" target="8nQMXK6_oTZO91173ZuV-2">
          <mxGeometry width="50" height="50" relative="1" as="geometry">
            <mxPoint x="270" y="420" as="sourcePoint" />
            <mxPoint x="320" y="370" as="targetPoint" />
          </mxGeometry>
        </mxCell>
        <mxCell id="8nQMXK6_oTZO91173ZuV-18" value="" style="endArrow=classic;html=1;entryX=0;entryY=0.5;entryDx=0;entryDy=0;exitX=1;exitY=0.5;exitDx=0;exitDy=0;" edge="1" parent="1" source="8nQMXK6_oTZO91173ZuV-1" target="8nQMXK6_oTZO91173ZuV-4">
          <mxGeometry width="50" height="50" relative="1" as="geometry">
            <mxPoint x="400" y="470" as="sourcePoint" />
            <mxPoint x="450" y="420" as="targetPoint" />
          </mxGeometry>
        </mxCell>
        <mxCell id="8nQMXK6_oTZO91173ZuV-19" value="" style="endArrow=classic;html=1;exitX=0;exitY=1;exitDx=0;exitDy=0;" edge="1" parent="1" source="8nQMXK6_oTZO91173ZuV-1" target="8nQMXK6_oTZO91173ZuV-8">
          <mxGeometry width="50" height="50" relative="1" as="geometry">
            <mxPoint x="330" y="480" as="sourcePoint" />
            <mxPoint x="380" y="430" as="targetPoint" />
          </mxGeometry>
        </mxCell>
        <mxCell id="8nQMXK6_oTZO91173ZuV-20" value="" style="endArrow=classic;html=1;exitX=0.5;exitY=1;exitDx=0;exitDy=0;" edge="1" parent="1" source="8nQMXK6_oTZO91173ZuV-1" target="8nQMXK6_oTZO91173ZuV-9">
          <mxGeometry width="50" height="50" relative="1" as="geometry">
            <mxPoint x="330" y="490" as="sourcePoint" />
            <mxPoint x="380" y="440" as="targetPoint" />
          </mxGeometry>
        </mxCell>
        <mxCell id="8nQMXK6_oTZO91173ZuV-21" value="" style="endArrow=classic;html=1;exitX=1;exitY=1;exitDx=0;exitDy=0;" edge="1" parent="1" source="8nQMXK6_oTZO91173ZuV-1" target="8nQMXK6_oTZO91173ZuV-5">
          <mxGeometry width="50" height="50" relative="1" as="geometry">
            <mxPoint x="370" y="470" as="sourcePoint" />
            <mxPoint x="420" y="420" as="targetPoint" />
          </mxGeometry>
        </mxCell>
        <mxCell id="8nQMXK6_oTZO91173ZuV-29" value="" style="edgeStyle=orthogonalEdgeStyle;rounded=0;orthogonalLoop=1;jettySize=auto;html=1;" edge="1" parent="1" source="8nQMXK6_oTZO91173ZuV-22" target="8nQMXK6_oTZO91173ZuV-24">
          <mxGeometry relative="1" as="geometry" />
        </mxCell>
        <mxCell id="8nQMXK6_oTZO91173ZuV-33" value="" style="edgeStyle=orthogonalEdgeStyle;rounded=0;orthogonalLoop=1;jettySize=auto;html=1;" edge="1" parent="1" source="8nQMXK6_oTZO91173ZuV-22" target="8nQMXK6_oTZO91173ZuV-32">
          <mxGeometry relative="1" as="geometry" />
        </mxCell>
        <mxCell id="8nQMXK6_oTZO91173ZuV-22" value="考试" style="ellipse;whiteSpace=wrap;html=1;" vertex="1" parent="1">
          <mxGeometry x="280" y="790" width="120" height="80" as="geometry" />
        </mxCell>
        <mxCell id="8nQMXK6_oTZO91173ZuV-23" value="学员考试记录" style="ellipse;whiteSpace=wrap;html=1;" vertex="1" parent="1">
          <mxGeometry x="120" y="670" width="120" height="80" as="geometry" />
        </mxCell>
        <mxCell id="8nQMXK6_oTZO91173ZuV-24" value="分配" style="ellipse;whiteSpace=wrap;html=1;" vertex="1" parent="1">
          <mxGeometry x="280" y="670" width="120" height="80" as="geometry" />
        </mxCell>
        <mxCell id="8nQMXK6_oTZO91173ZuV-25" value="学员身份认证" style="ellipse;whiteSpace=wrap;html=1;" vertex="1" parent="1">
          <mxGeometry x="430" y="670" width="120" height="80" as="geometry" />
        </mxCell>
        <mxCell id="8nQMXK6_oTZO91173ZuV-30" value="" style="endArrow=classic;html=1;entryX=0.2;entryY=0.95;entryDx=0;entryDy=0;entryPerimeter=0;" edge="1" parent="1" target="8nQMXK6_oTZO91173ZuV-25">
          <mxGeometry width="50" height="50" relative="1" as="geometry">
            <mxPoint x="389" y="810" as="sourcePoint" />
            <mxPoint x="439" y="760" as="targetPoint" />
          </mxGeometry>
        </mxCell>
        <mxCell id="8nQMXK6_oTZO91173ZuV-31" value="" style="endArrow=classic;html=1;entryX=0.5;entryY=1;entryDx=0;entryDy=0;" edge="1" parent="1" target="8nQMXK6_oTZO91173ZuV-23">
          <mxGeometry width="50" height="50" relative="1" as="geometry">
            <mxPoint x="290" y="814" as="sourcePoint" />
            <mxPoint x="355" y="750" as="targetPoint" />
          </mxGeometry>
        </mxCell>
        <mxCell id="8nQMXK6_oTZO91173ZuV-35" value="" style="edgeStyle=orthogonalEdgeStyle;rounded=0;orthogonalLoop=1;jettySize=auto;html=1;" edge="1" parent="1" source="8nQMXK6_oTZO91173ZuV-32" target="8nQMXK6_oTZO91173ZuV-34">
          <mxGeometry relative="1" as="geometry" />
        </mxCell>
        <mxCell id="8nQMXK6_oTZO91173ZuV-37" value="" style="edgeStyle=orthogonalEdgeStyle;rounded=0;orthogonalLoop=1;jettySize=auto;html=1;" edge="1" parent="1" source="8nQMXK6_oTZO91173ZuV-32" target="8nQMXK6_oTZO91173ZuV-36">
          <mxGeometry relative="1" as="geometry" />
        </mxCell>
        <mxCell id="8nQMXK6_oTZO91173ZuV-32" value="试题" style="ellipse;whiteSpace=wrap;html=1;" vertex="1" parent="1">
          <mxGeometry x="280" y="910" width="120" height="80" as="geometry" />
        </mxCell>
        <mxCell id="8nQMXK6_oTZO91173ZuV-34" value="分配" style="ellipse;whiteSpace=wrap;html=1;" vertex="1" parent="1">
          <mxGeometry x="480" y="910" width="120" height="80" as="geometry" />
        </mxCell>
        <mxCell id="8nQMXK6_oTZO91173ZuV-36" value="分类" style="ellipse;whiteSpace=wrap;html=1;" vertex="1" parent="1">
          <mxGeometry x="80" y="910" width="120" height="80" as="geometry" />
        </mxCell>
        <mxCell id="8nQMXK6_oTZO91173ZuV-38" value="考试试题关系、试题具体内容存mongo" style="ellipse;shape=cloud;whiteSpace=wrap;html=1;" vertex="1" parent="1">
          <mxGeometry x="400" y="810" width="320" height="80" as="geometry" />
        </mxCell>
        <mxCell id="8nQMXK6_oTZO91173ZuV-51" style="edgeStyle=orthogonalEdgeStyle;rounded=0;orthogonalLoop=1;jettySize=auto;html=1;" edge="1" parent="1" source="8nQMXK6_oTZO91173ZuV-39" target="8nQMXK6_oTZO91173ZuV-45">
          <mxGeometry relative="1" as="geometry" />
        </mxCell>
        <mxCell id="8nQMXK6_oTZO91173ZuV-39" value="直播" style="ellipse;whiteSpace=wrap;html=1;" vertex="1" parent="1">
          <mxGeometry x="310" y="1160" width="120" height="80" as="geometry" />
        </mxCell>
        <mxCell id="8nQMXK6_oTZO91173ZuV-40" value="直播统计" style="ellipse;whiteSpace=wrap;html=1;" vertex="1" parent="1">
          <mxGeometry x="60" y="1040" width="120" height="80" as="geometry" />
        </mxCell>
        <mxCell id="8nQMXK6_oTZO91173ZuV-41" value="回放" style="ellipse;whiteSpace=wrap;html=1;" vertex="1" parent="1">
          <mxGeometry x="230" y="1040" width="120" height="80" as="geometry" />
        </mxCell>
        <mxCell id="8nQMXK6_oTZO91173ZuV-42" value="基本信息审核" style="ellipse;whiteSpace=wrap;html=1;" vertex="1" parent="1">
          <mxGeometry x="590" y="1040" width="120" height="80" as="geometry" />
        </mxCell>
        <mxCell id="8nQMXK6_oTZO91173ZuV-43" value="分配" style="ellipse;whiteSpace=wrap;html=1;" vertex="1" parent="1">
          <mxGeometry x="400" y="1040" width="120" height="80" as="geometry" />
        </mxCell>
        <mxCell id="8nQMXK6_oTZO91173ZuV-44" value="分配信息审核" style="ellipse;whiteSpace=wrap;html=1;" vertex="1" parent="1">
          <mxGeometry x="600" y="1160" width="120" height="80" as="geometry" />
        </mxCell>
        <mxCell id="8nQMXK6_oTZO91173ZuV-45" value="弹幕" style="ellipse;whiteSpace=wrap;html=1;" vertex="1" parent="1">
          <mxGeometry x="60" y="1160" width="120" height="80" as="geometry" />
        </mxCell>
        <mxCell id="8nQMXK6_oTZO91173ZuV-46" value="购买记录" style="ellipse;whiteSpace=wrap;html=1;" vertex="1" parent="1">
          <mxGeometry x="60" y="1270" width="120" height="80" as="geometry" />
        </mxCell>
        <mxCell id="8nQMXK6_oTZO91173ZuV-47" value="用户参与直播统计" style="ellipse;whiteSpace=wrap;html=1;" vertex="1" parent="1">
          <mxGeometry x="310" y="1350" width="120" height="80" as="geometry" />
        </mxCell>
        <mxCell id="8nQMXK6_oTZO91173ZuV-48" value="审核意见" style="ellipse;whiteSpace=wrap;html=1;" vertex="1" parent="1">
          <mxGeometry x="590" y="1260" width="120" height="80" as="geometry" />
        </mxCell>
        <mxCell id="8nQMXK6_oTZO91173ZuV-49" value="直播 套餐&amp;nbsp;" style="ellipse;whiteSpace=wrap;html=1;" vertex="1" parent="1">
          <mxGeometry x="220" y="1280" width="120" height="80" as="geometry" />
        </mxCell>
        <mxCell id="8nQMXK6_oTZO91173ZuV-50" value="用户参与直播记录" style="ellipse;whiteSpace=wrap;html=1;" vertex="1" parent="1">
          <mxGeometry x="413.5" y="1270" width="120" height="80" as="geometry" />
        </mxCell>
        <mxCell id="8nQMXK6_oTZO91173ZuV-52" value="" style="endArrow=classic;html=1;entryX=1;entryY=1;entryDx=0;entryDy=0;" edge="1" parent="1" source="8nQMXK6_oTZO91173ZuV-39" target="8nQMXK6_oTZO91173ZuV-40">
          <mxGeometry width="50" height="50" relative="1" as="geometry">
            <mxPoint x="360" y="1180" as="sourcePoint" />
            <mxPoint x="410" y="1130" as="targetPoint" />
          </mxGeometry>
        </mxCell>
        <mxCell id="8nQMXK6_oTZO91173ZuV-53" value="" style="endArrow=classic;html=1;" edge="1" parent="1" target="8nQMXK6_oTZO91173ZuV-41">
          <mxGeometry width="50" height="50" relative="1" as="geometry">
            <mxPoint x="350" y="1160" as="sourcePoint" />
            <mxPoint x="410" y="1120" as="targetPoint" />
          </mxGeometry>
        </mxCell>
        <mxCell id="8nQMXK6_oTZO91173ZuV-54" value="" style="endArrow=classic;html=1;exitX=0.742;exitY=0.038;exitDx=0;exitDy=0;exitPerimeter=0;" edge="1" parent="1" source="8nQMXK6_oTZO91173ZuV-39">
          <mxGeometry width="50" height="50" relative="1" as="geometry">
            <mxPoint x="493.16999999999996" y="1160" as="sourcePoint" />
            <mxPoint x="460.00281572999745" y="1115.7770876399966" as="targetPoint" />
          </mxGeometry>
        </mxCell>
        <mxCell id="8nQMXK6_oTZO91173ZuV-55" value="" style="endArrow=classic;html=1;exitX=0.917;exitY=0.213;exitDx=0;exitDy=0;exitPerimeter=0;entryX=0.092;entryY=0.763;entryDx=0;entryDy=0;entryPerimeter=0;" edge="1" parent="1" source="8nQMXK6_oTZO91173ZuV-39" target="8nQMXK6_oTZO91173ZuV-42">
          <mxGeometry width="50" height="50" relative="1" as="geometry">
            <mxPoint x="409.03999999999996" y="1173.04" as="sourcePoint" />
            <mxPoint x="470.00281572999756" y="1125.7770876399966" as="targetPoint" />
            <Array as="points">
              <mxPoint x="460" y="1160" />
            </Array>
          </mxGeometry>
        </mxCell>
        <mxCell id="8nQMXK6_oTZO91173ZuV-56" value="" style="endArrow=classic;html=1;exitX=1;exitY=0.5;exitDx=0;exitDy=0;entryX=0;entryY=0.5;entryDx=0;entryDy=0;" edge="1" parent="1" source="8nQMXK6_oTZO91173ZuV-39" target="8nQMXK6_oTZO91173ZuV-44">
          <mxGeometry width="50" height="50" relative="1" as="geometry">
            <mxPoint x="430" y="1230" as="sourcePoint" />
            <mxPoint x="480" y="1180" as="targetPoint" />
          </mxGeometry>
        </mxCell>
        <mxCell id="8nQMXK6_oTZO91173ZuV-57" value="" style="endArrow=classic;html=1;entryX=1;entryY=0;entryDx=0;entryDy=0;" edge="1" parent="1" source="8nQMXK6_oTZO91173ZuV-39" target="8nQMXK6_oTZO91173ZuV-46">
          <mxGeometry width="50" height="50" relative="1" as="geometry">
            <mxPoint x="350" y="1250" as="sourcePoint" />
            <mxPoint x="290" y="1250" as="targetPoint" />
          </mxGeometry>
        </mxCell>
        <mxCell id="8nQMXK6_oTZO91173ZuV-58" value="" style="endArrow=classic;html=1;entryX=0.5;entryY=0;entryDx=0;entryDy=0;exitX=0.183;exitY=0.938;exitDx=0;exitDy=0;exitPerimeter=0;" edge="1" parent="1" source="8nQMXK6_oTZO91173ZuV-39" target="8nQMXK6_oTZO91173ZuV-49">
          <mxGeometry width="50" height="50" relative="1" as="geometry">
            <mxPoint x="420" y="1240" as="sourcePoint" />
            <mxPoint x="470" y="1190" as="targetPoint" />
          </mxGeometry>
        </mxCell>
        <mxCell id="8nQMXK6_oTZO91173ZuV-59" value="" style="endArrow=classic;html=1;entryX=0.1;entryY=0.175;entryDx=0;entryDy=0;entryPerimeter=0;exitX=1;exitY=1;exitDx=0;exitDy=0;" edge="1" parent="1" source="8nQMXK6_oTZO91173ZuV-39" target="8nQMXK6_oTZO91173ZuV-48">
          <mxGeometry width="50" height="50" relative="1" as="geometry">
            <mxPoint x="420" y="1250" as="sourcePoint" />
            <mxPoint x="470" y="1200" as="targetPoint" />
          </mxGeometry>
        </mxCell>
        <mxCell id="8nQMXK6_oTZO91173ZuV-60" value="" style="endArrow=classic;html=1;exitX=0.658;exitY=0.963;exitDx=0;exitDy=0;exitPerimeter=0;" edge="1" parent="1" source="8nQMXK6_oTZO91173ZuV-39" target="8nQMXK6_oTZO91173ZuV-50">
          <mxGeometry width="50" height="50" relative="1" as="geometry">
            <mxPoint x="360" y="1250" as="sourcePoint" />
            <mxPoint x="410" y="1200" as="targetPoint" />
          </mxGeometry>
        </mxCell>
        <mxCell id="8nQMXK6_oTZO91173ZuV-61" value="" style="endArrow=classic;html=1;entryX=0.5;entryY=0;entryDx=0;entryDy=0;exitX=0.5;exitY=1;exitDx=0;exitDy=0;" edge="1" parent="1" source="8nQMXK6_oTZO91173ZuV-39" target="8nQMXK6_oTZO91173ZuV-47">
          <mxGeometry width="50" height="50" relative="1" as="geometry">
            <mxPoint x="360" y="1250" as="sourcePoint" />
            <mxPoint x="410" y="1200" as="targetPoint" />
          </mxGeometry>
        </mxCell>
        <mxCell id="8nQMXK6_oTZO91173ZuV-62" value="素材" style="ellipse;whiteSpace=wrap;html=1;" vertex="1" parent="1">
          <mxGeometry x="320" y="1600" width="120" height="80" as="geometry" />
        </mxCell>
        <mxCell id="8nQMXK6_oTZO91173ZuV-63" value="分类" style="ellipse;whiteSpace=wrap;html=1;" vertex="1" parent="1">
          <mxGeometry x="90" y="1530" width="120" height="80" as="geometry" />
        </mxCell>
        <mxCell id="8nQMXK6_oTZO91173ZuV-64" value="内容数据" style="ellipse;whiteSpace=wrap;html=1;" vertex="1" parent="1">
          <mxGeometry x="250" y="1480" width="120" height="80" as="geometry" />
        </mxCell>
        <mxCell id="8nQMXK6_oTZO91173ZuV-65" value="分配（引用权限）" style="ellipse;whiteSpace=wrap;html=1;" vertex="1" parent="1">
          <mxGeometry x="414" y="1480" width="120" height="80" as="geometry" />
        </mxCell>
        <mxCell id="8nQMXK6_oTZO91173ZuV-66" value="引用关系" style="ellipse;whiteSpace=wrap;html=1;" vertex="1" parent="1">
          <mxGeometry x="550" y="1550" width="120" height="80" as="geometry" />
        </mxCell>
        <mxCell id="8nQMXK6_oTZO91173ZuV-67" value="用户素材记录" style="ellipse;whiteSpace=wrap;html=1;" vertex="1" parent="1">
          <mxGeometry x="90" y="1660" width="120" height="80" as="geometry" />
        </mxCell>
        <mxCell id="8nQMXK6_oTZO91173ZuV-68" value="用户素材学习统计" style="ellipse;whiteSpace=wrap;html=1;" vertex="1" parent="1">
          <mxGeometry x="533.5" y="1690" width="120" height="80" as="geometry" />
        </mxCell>
        <mxCell id="8nQMXK6_oTZO91173ZuV-69" value="用户素材学习记录" style="ellipse;whiteSpace=wrap;html=1;" vertex="1" parent="1">
          <mxGeometry x="310" y="1714" width="120" height="80" as="geometry" />
        </mxCell>
        <mxCell id="8nQMXK6_oTZO91173ZuV-70" value="" style="endArrow=classic;html=1;exitX=0.683;exitY=0.038;exitDx=0;exitDy=0;exitPerimeter=0;" edge="1" parent="1" source="8nQMXK6_oTZO91173ZuV-62">
          <mxGeometry width="50" height="50" relative="1" as="geometry">
            <mxPoint x="414" y="1610" as="sourcePoint" />
            <mxPoint x="464" y="1560" as="targetPoint" />
          </mxGeometry>
        </mxCell>
        <mxCell id="8nQMXK6_oTZO91173ZuV-71" value="" style="endArrow=classic;html=1;entryX=0;entryY=0.5;entryDx=0;entryDy=0;exitX=0.983;exitY=0.388;exitDx=0;exitDy=0;exitPerimeter=0;" edge="1" parent="1" source="8nQMXK6_oTZO91173ZuV-62" target="8nQMXK6_oTZO91173ZuV-66">
          <mxGeometry width="50" height="50" relative="1" as="geometry">
            <mxPoint x="424" y="1620" as="sourcePoint" />
            <mxPoint x="474" y="1570" as="targetPoint" />
            <Array as="points">
              <mxPoint x="474" y="1620" />
            </Array>
          </mxGeometry>
        </mxCell>
        <mxCell id="8nQMXK6_oTZO91173ZuV-72" value="" style="endArrow=classic;html=1;entryX=0;entryY=0;entryDx=0;entryDy=0;exitX=1;exitY=1;exitDx=0;exitDy=0;" edge="1" parent="1" source="8nQMXK6_oTZO91173ZuV-62" target="8nQMXK6_oTZO91173ZuV-68">
          <mxGeometry width="50" height="50" relative="1" as="geometry">
            <mxPoint x="460" y="1730" as="sourcePoint" />
            <mxPoint x="510" y="1680" as="targetPoint" />
          </mxGeometry>
        </mxCell>
        <mxCell id="8nQMXK6_oTZO91173ZuV-73" value="" style="endArrow=classic;html=1;entryX=0.675;entryY=0.963;entryDx=0;entryDy=0;entryPerimeter=0;exitX=0.333;exitY=0.013;exitDx=0;exitDy=0;exitPerimeter=0;" edge="1" parent="1" source="8nQMXK6_oTZO91173ZuV-62" target="8nQMXK6_oTZO91173ZuV-64">
          <mxGeometry width="50" height="50" relative="1" as="geometry">
            <mxPoint x="370" y="1600" as="sourcePoint" />
            <mxPoint x="420" y="1550" as="targetPoint" />
          </mxGeometry>
        </mxCell>
        <mxCell id="8nQMXK6_oTZO91173ZuV-74" value="" style="endArrow=classic;html=1;entryX=1;entryY=0.6;entryDx=0;entryDy=0;entryPerimeter=0;" edge="1" parent="1" target="8nQMXK6_oTZO91173ZuV-63">
          <mxGeometry width="50" height="50" relative="1" as="geometry">
            <mxPoint x="320" y="1630" as="sourcePoint" />
            <mxPoint x="370" y="1580" as="targetPoint" />
          </mxGeometry>
        </mxCell>
        <mxCell id="8nQMXK6_oTZO91173ZuV-75" value="" style="endArrow=classic;html=1;entryX=1;entryY=0.5;entryDx=0;entryDy=0;exitX=0.042;exitY=0.775;exitDx=0;exitDy=0;exitPerimeter=0;" edge="1" parent="1" source="8nQMXK6_oTZO91173ZuV-62" target="8nQMXK6_oTZO91173ZuV-67">
          <mxGeometry width="50" height="50" relative="1" as="geometry">
            <mxPoint x="320" y="1650" as="sourcePoint" />
            <mxPoint x="370" y="1600" as="targetPoint" />
          </mxGeometry>
        </mxCell>
        <mxCell id="8nQMXK6_oTZO91173ZuV-76" value="" style="endArrow=classic;html=1;entryX=0.567;entryY=0.013;entryDx=0;entryDy=0;entryPerimeter=0;exitX=0.5;exitY=1;exitDx=0;exitDy=0;" edge="1" parent="1" source="8nQMXK6_oTZO91173ZuV-62" target="8nQMXK6_oTZO91173ZuV-69">
          <mxGeometry width="50" height="50" relative="1" as="geometry">
            <mxPoint x="280" y="1720" as="sourcePoint" />
            <mxPoint x="330" y="1670" as="targetPoint" />
          </mxGeometry>
        </mxCell>
      </root>
    </mxGraphModel>
  </diagram>
</mxfile>
